<svg width="18" height="14" viewBox="0 0 18 14" fill="none" xmlns="http://www.w3.org/2000/svg">
<path d="M14.84 0.339999H3.16C2.70667 0.339999 2.28667 0.453333 1.9 0.68C1.52667 0.906666 1.22667 1.21333 1 1.6C0.773333 1.97333 0.66 2.38667 0.66 2.84V11.16C0.66 11.6133 0.773333 12.0333 1 12.42C1.22667 12.7933 1.52667 13.0933 1.9 13.32C2.28667 13.5467 2.70667 13.66 3.16 13.66H14.84C15.2933 13.66 15.7067 13.5467 16.08 13.32C16.4667 13.0933 16.7733 12.7933 17 12.42C17.2267 12.0333 17.34 11.6133 17.34 11.16V2.84C17.34 2.38667 17.2267 1.97333 17 1.6C16.7733 1.21333 16.4667 0.906666 16.08 0.68C15.7067 0.453333 15.2933 0.339999 14.84 0.339999ZM3.16 2H14.84C15.0667 2 15.26 2.08667 15.42 2.26C15.58 2.42 15.66 2.61333 15.66 2.84L9 6.9L2.34 2.84C2.34 2.61333 2.42 2.42 2.58 2.26C2.74 2.08667 2.93333 2 3.16 2ZM15.66 11.16C15.66 11.3867 15.58 11.5867 15.42 11.76C15.26 11.92 15.0667 12 14.84 12H3.16C2.93333 12 2.74 11.92 2.58 11.76C2.42 11.5867 2.34 11.3867 2.34 11.16V4.74L8.56 8.54C8.69333 8.62 8.83333 8.66 8.98 8.66C9.12667 8.66 9.26667 8.62 9.4 8.54L15.66 4.74V11.16Z" />
</svg>
