<svg width="31" height="31" viewBox="0 0 31 31" fill="none" xmlns="http://www.w3.org/2000/svg">
<path d="M27.9764 21.6481C27.9764 25.1427 25.1426 27.9756 21.6478 27.9756H9.35216C5.85741 27.9756 3.02365 25.1427 3.02365 21.6481V9.35191C3.02365 5.85807 5.85741 3.02437 9.35216 3.02437H21.6478C25.1426 3.02437 27.9764 5.85807 27.9764 9.35191V21.6481ZM31 9.21331C31 4.12516 26.8755 0 21.7864 0H9.21355C4.12447 0 0 4.12516 0 9.21331V21.7867C0 26.8748 4.12447 31 9.21355 31H21.7864C26.8755 31 31 26.8748 31 21.7867V9.21331ZM25.5039 7.22003C25.5039 8.21347 24.6987 9.01863 23.7061 9.01863C22.7126 9.01863 21.9074 8.21347 21.9074 7.22003C21.9074 6.2266 22.7126 5.42224 23.7061 5.42224C24.6987 5.42224 25.5039 6.2266 25.5039 7.22003Z" fill="#FCFCFC"/>
<path d="M1.5498 14.7256H29.4498V6.55059C29.4498 3.78917 27.2112 1.55058 24.4498 1.55058H6.5498C3.78838 1.55058 1.5498 3.78916 1.5498 6.55058V14.7256Z" fill="#FCFCFC"/>
<path d="M15.5 23.25C11.2198 23.25 7.75 20.15 7.75 14.725H23.25C23.25 20.925 19.7802 23.25 15.5 23.25Z" fill="#FCFCFC"/>
<path d="M15.5001 10.8496C12.932 10.8496 10.8501 12.9315 10.8501 15.4996H20.1501C20.1501 12.9315 18.0682 10.8496 15.5001 10.8496Z" fill="#222222"/>
<path d="M15.5001 20.1504C12.932 20.1504 10.8501 18.1575 10.8501 15.5004H20.1501C20.1501 18.8218 18.0682 20.1504 15.5001 20.1504Z" fill="#222222"/>
<ellipse cx="24.0252" cy="6.97539" rx="2.325" ry="2.325" fill="#222222"/>
</svg>
